<svg xmlns="http://www.w3.org/2000/svg" xmlns:xlink="http://www.w3.org/1999/xlink" contentStyleType="text/css" data-diagram-type="DESCRIPTION" height="609px" preserveAspectRatio="none" style="width:1441px;height:609px;background:#FFFFFF;" version="1.1" viewBox="0 0 1441 609" width="1441px" zoomAndPan="magnify"><title>IVAS &#22810;&#26080;&#20154;&#26426;&#36890;&#20449;&#25299;&#25169;&#65288;Part 1&#65289;</title><defs/><g><text fill="#000000" font-family="PingFang SC" font-size="14" font-weight="bold" lengthAdjust="spacing" textLength="213.99" x="606.704" y="24.84">IVAS &#22810;&#26080;&#20154;&#26426;&#36890;&#20449;&#25299;&#25169;&#65288;Part 1&#65289;</text><!--cluster NET--><g class="cluster" data-entity="NET" data-source-line="18" data-uid="ent0002" id="cluster_NET"><rect fill="none" height="142.8" rx="2.5" ry="2.5" style="stroke:#181818;stroke-width:1;" width="377" x="508.12" y="259.06"/><text fill="#000000" font-family="PingFang SC" font-size="14" font-weight="bold" lengthAdjust="spacing" textLength="72.324" x="660.458" y="275.9">&#20844;&#32593; / &#19987;&#32593;</text></g><!--cluster UAVS--><g class="cluster" data-entity="UAVS" data-source-line="31" data-uid="ent0007" id="cluster_UAVS"><path d="M331.62,47.86 L430.62,47.86 A3.75,3.75 0 0 1 433.12,50.36 L440.12,73.46 L894.62,73.46 A2.5,2.5 0 0 1 897.12,75.96 L897.12,168.56 A2.5,2.5 0 0 1 894.62,171.06 L331.62,171.06 A2.5,2.5 0 0 1 329.12,168.56 L329.12,50.36 A2.5,2.5 0 0 1 331.62,47.86" fill="none" style="stroke:#000000;stroke-width:1.5;"/><line style="stroke:#000000;stroke-width:1.5;" x1="329.12" x2="440.12" y1="73.46" y2="73.46"/><text fill="#000000" font-family="PingFang SC" font-size="14" font-weight="bold" lengthAdjust="spacing" textLength="98" x="333.12" y="64.7">&#29616;&#22330;&#26080;&#20154;&#26426;&#38598;&#32676;</text></g><!--entity MQTT--><g class="entity" data-entity="MQTT" data-source-line="19" data-uid="ent0003" id="entity_MQTT"><polygon fill="#F1F1F1" points="524.58,307.06,534.58,297.06,665.66,297.06,665.66,375.86,655.66,385.86,524.58,385.86,524.58,307.06" style="stroke:#181818;stroke-width:0.5;"/><line style="stroke:#181818;stroke-width:0.5;" x1="655.66" x2="665.66" y1="307.06" y2="297.06"/><line style="stroke:#181818;stroke-width:0.5;" x1="524.58" x2="655.66" y1="307.06" y2="307.06"/><line style="stroke:#181818;stroke-width:0.5;" x1="655.66" x2="655.66" y1="307.06" y2="385.86"/><text fill="#000000" font-family="PingFang SC" font-size="14" lengthAdjust="spacing" textLength="101.08" x="539.58" y="331.9">MQTT &#20113;&#26381;&#21153;&#22120;</text><text fill="#000000" font-family="PingFang SC" font-size="14" lengthAdjust="spacing" textLength="81.648" x="539.58" y="351.5">(&#36965;&#25511; / &#29366;&#24577;)</text><text fill="#000000" font-family="PingFang SC" font-size="14" lengthAdjust="spacing" textLength="86.408" x="539.58" y="371.1">TLS &#21152;&#23494;&#36830;&#25509;</text></g><!--entity MEDIA_CLOUD--><g class="entity" data-entity="MEDIA_CLOUD" data-source-line="21" data-uid="ent0004" id="entity_MEDIA_CLOUD"><polygon fill="#F1F1F1" points="700.91,307.06,710.91,297.06,869.318,297.06,869.318,375.86,859.318,385.86,700.91,385.86,700.91,307.06" style="stroke:#181818;stroke-width:0.5;"/><line style="stroke:#181818;stroke-width:0.5;" x1="859.318" x2="869.318" y1="307.06" y2="297.06"/><line style="stroke:#181818;stroke-width:0.5;" x1="700.91" x2="859.318" y1="307.06" y2="307.06"/><line style="stroke:#181818;stroke-width:0.5;" x1="859.318" x2="859.318" y1="307.06" y2="385.86"/><text fill="#000000" font-family="PingFang SC" font-size="14" lengthAdjust="spacing" textLength="112" x="715.91" y="331.9">&#35270;&#39057;&#20013;&#36716;&#20113;&#26381;&#21153;&#22120;</text><text fill="#000000" font-family="PingFang SC" font-size="14" lengthAdjust="spacing" textLength="119.21" x="715.91" y="351.5">(RTMP/mediamtx)</text><text fill="#000000" font-family="PingFang SC" font-size="14" lengthAdjust="spacing" textLength="128.408" x="715.91" y="371.1">TLS &#21152;&#23494;&#25512;&#27969;&#19982;&#25289;&#27969;</text></g><!--entity IVAS_SRVR--><g class="entity" data-entity="IVAS_SRVR" data-source-line="25" data-uid="ent0005" id="entity_IVAS_SRVR"><polygon fill="#F1F1F1" points="1134.13,316.86,1144.13,306.86,1384.102,306.86,1384.102,366.06,1374.102,376.06,1134.13,376.06,1134.13,316.86" style="stroke:#181818;stroke-width:0.5;"/><line style="stroke:#181818;stroke-width:0.5;" x1="1374.102" x2="1384.102" y1="316.86" y2="306.86"/><line style="stroke:#181818;stroke-width:0.5;" x1="1134.13" x2="1374.102" y1="316.86" y2="316.86"/><line style="stroke:#181818;stroke-width:0.5;" x1="1374.102" x2="1374.102" y1="316.86" y2="376.06"/><text fill="#000000" font-family="PingFang SC" font-size="14" lengthAdjust="spacing" textLength="104.972" x="1149.13" y="341.7">IVAS &#20013;&#24515;&#26381;&#21153;&#22120;</text><text fill="#000000" font-family="PingFang SC" font-size="14" lengthAdjust="spacing" textLength="209.972" x="1149.13" y="361.3">(&#20219;&#21153;&#19979;&#21457; / &#24577;&#21183;&#24863;&#30693; / &#20219;&#21153;&#31649;&#25511;)</text></g><!--entity GCS--><g class="entity" data-entity="GCS" data-source-line="28" data-uid="ent0006" id="entity_GCS"><polygon fill="#F1F1F1" points="790.95,513.86,800.95,503.86,959.274,503.86,959.274,582.66,949.274,592.66,790.95,592.66,790.95,513.86" style="stroke:#181818;stroke-width:0.5;"/><line style="stroke:#181818;stroke-width:0.5;" x1="949.274" x2="959.274" y1="513.86" y2="503.86"/><line style="stroke:#181818;stroke-width:0.5;" x1="790.95" x2="949.274" y1="513.86" y2="513.86"/><line style="stroke:#181818;stroke-width:0.5;" x1="949.274" x2="949.274" y1="513.86" y2="592.66"/><text fill="#000000" font-family="PingFang SC" font-size="14" lengthAdjust="spacing" textLength="84" x="805.95" y="538.7">&#26080;&#20154;&#26426;&#22320;&#38754;&#31449;</text><text fill="#000000" font-family="PingFang SC" font-size="14" lengthAdjust="spacing" textLength="128.324" x="805.95" y="558.3">&#22810;&#26426;&#25511;&#21046; / &#30446;&#26631;&#35782;&#21035;</text><text fill="#000000" font-family="PingFang SC" font-size="14" lengthAdjust="spacing" textLength="98" x="805.95" y="577.9">&#20219;&#21153;&#21327;&#35843;&#19982;&#25191;&#34892;</text></g><!--entity UAV1--><g class="entity" data-entity="UAV1" data-source-line="32" data-uid="ent0008" id="entity_UAV1"><polygon fill="#F1F1F1" points="345.47,95.86,355.47,85.86,498.772,85.86,498.772,145.06,488.772,155.06,345.47,155.06,345.47,95.86" style="stroke:#181818;stroke-width:0.5;"/><line style="stroke:#181818;stroke-width:0.5;" x1="488.772" x2="498.772" y1="95.86" y2="85.86"/><line style="stroke:#181818;stroke-width:0.5;" x1="345.47" x2="488.772" y1="95.86" y2="95.86"/><line style="stroke:#181818;stroke-width:0.5;" x1="488.772" x2="488.772" y1="95.86" y2="155.06"/><text fill="#000000" font-family="PingFang SC" font-size="14" lengthAdjust="spacing" textLength="42.224" x="360.47" y="120.7">UAV-1</text><text fill="#000000" font-family="PingFang SC" font-size="14" lengthAdjust="spacing" textLength="113.302" x="360.47" y="140.3">(device_code = 1)</text></g><!--entity UAV2--><g class="entity" data-entity="UAV2" data-source-line="33" data-uid="ent0009" id="entity_UAV2"><polygon fill="#F1F1F1" points="534.07,95.86,544.07,85.86,690.158,85.86,690.158,145.06,680.158,155.06,534.07,155.06,534.07,95.86" style="stroke:#181818;stroke-width:0.5;"/><line style="stroke:#181818;stroke-width:0.5;" x1="680.158" x2="690.158" y1="95.86" y2="85.86"/><line style="stroke:#181818;stroke-width:0.5;" x1="534.07" x2="680.158" y1="95.86" y2="95.86"/><line style="stroke:#181818;stroke-width:0.5;" x1="680.158" x2="680.158" y1="95.86" y2="155.06"/><text fill="#000000" font-family="PingFang SC" font-size="14" lengthAdjust="spacing" textLength="45.01" x="549.07" y="120.7">UAV-2</text><text fill="#000000" font-family="PingFang SC" font-size="14" lengthAdjust="spacing" textLength="116.088" x="549.07" y="140.3">(device_code = 2)</text></g><!--entity UAV3--><g class="entity" data-entity="UAV3" data-source-line="34" data-uid="ent0010" id="entity_UAV3"><polygon fill="#F1F1F1" points="725.07,95.86,735.07,85.86,881.158,85.86,881.158,145.06,871.158,155.06,725.07,155.06,725.07,95.86" style="stroke:#181818;stroke-width:0.5;"/><line style="stroke:#181818;stroke-width:0.5;" x1="871.158" x2="881.158" y1="95.86" y2="85.86"/><line style="stroke:#181818;stroke-width:0.5;" x1="725.07" x2="871.158" y1="95.86" y2="95.86"/><line style="stroke:#181818;stroke-width:0.5;" x1="871.158" x2="871.158" y1="95.86" y2="155.06"/><text fill="#000000" font-family="PingFang SC" font-size="14" lengthAdjust="spacing" textLength="45.01" x="740.07" y="120.7">UAV-3</text><text fill="#000000" font-family="PingFang SC" font-size="14" lengthAdjust="spacing" textLength="116.088" x="740.07" y="140.3">(device_code = 3)</text></g><!--entity OP_CONSOLE--><g class="entity" data-entity="OP_CONSOLE" data-source-line="37" data-uid="ent0011" id="entity_OP_CONSOLE"><path d="M1256.6005,95.6239 C1259.7304,88.7265 1264.8376,88.7625 1269.4748,94.0285 C1273.15,87.8228 1277.8438,88.9282 1281.1243,94.4215 C1284.1354,88.3917 1289.7574,87.3425 1293.7315,93.4188 C1296.0611,87.0679 1299.9031,86.1243 1304.8483,90.7761 C1308.6974,85.4378 1313.369,85.7136 1316.999,91.026 C1319.9133,84.5096 1324.6009,83.4175 1329.496,88.9761 C1331.8855,84.2467 1336.2844,84.2647 1339.2595,88.3257 C1343.7901,82.8101 1348.1238,83.0693 1351.3141,89.6602 C1355.212,83.3772 1360.311,84.3406 1363.6492,90.2275 C1368.1345,85.6024 1371.5757,85.6439 1374.9429,91.4392 C1379.8799,86.3617 1383.5989,86.9163 1386.8144,93.2329 C1389.9302,87.0119 1394.6061,87.9556 1398.4925,92.3882 C1403.6139,87.3417 1409.2113,87.5795 1412.1248,94.8349 C1415.03,89.9448 1419.7273,88.515 1423.0765,94.3829 C1430.5905,98.7615 1431.0373,103.5654 1424.3522,109.1691 C1430.2493,110.8765 1431.6585,116.9578 1427.4675,121.2637 C1432.8639,125.9893 1431.8822,131.5082 1425.456,134.4272 C1431.6879,139.8021 1431.7703,145.076 1423.8801,148.9147 C1420.2231,156.0232 1414.8654,156.4772 1410.6671,149.4196 C1407.1173,154.0483 1401.9977,154.5366 1398.8686,148.9345 C1396.1206,153.8472 1391.4213,155.484 1387.5402,150.1925 C1383.4598,155.5543 1380.1768,155.267 1376.8347,149.4833 C1373.1612,156.5065 1368.7401,156.8852 1363.5153,151.096 C1360.2446,157.5134 1354.2374,157.165 1350.9921,151.0706 C1347.3712,157.367 1343.5448,156.6642 1339.3753,151.6332 C1335.949,156.0857 1331.4304,156.0907 1329.1758,150.4491 C1326.3028,155.6869 1320.6628,157.1068 1317.0102,151.3085 C1312.0106,157.3637 1307.7291,156.9146 1303.8633,150.1461 C1300.4702,154.4285 1295.3276,153.9986 1293.1483,148.7776 C1290.7673,155.4238 1284.6696,156.0054 1280.9376,150.0909 C1276.0358,155.1109 1272.4155,153.2763 1269.4888,147.9131 C1266.685,152.5363 1261.2282,152.7876 1258.2059,148.1802 C1250.8197,146.0707 1248.6545,140.1745 1254.4881,134.478 C1247.3673,130.631 1246.8921,126.6082 1252.9061,121.1967 C1247.0449,114.9551 1249.0544,110.2828 1256.357,107.3133 C1251.1208,103.1368 1250.8191,99.5709 1256.6005,95.6239" fill="#F1F1F1" style="stroke:#181818;stroke-width:0.5;"/><text fill="#000000" font-family="PingFang SC" font-size="14" lengthAdjust="spacing" textLength="86.324" x="1263.29" y="115.7">&#36816;&#32500; / &#25351;&#25381;&#31471;</text><text fill="#000000" font-family="PingFang SC" font-size="14" lengthAdjust="spacing" textLength="151.648" x="1263.29" y="135.3">(&#27983;&#35272;&#22120; / &#19978;&#20301;&#25351;&#25381;&#31995;&#32479;)</text></g><!--link GCS to MQTT--><g class="link" data-entity-1="GCS" data-entity-2="MQTT" data-source-line="40" data-uid="lnk12" id="link_GCS_MQTT"><path d="M790.59,532.8 C749.04,522.19 700.45,504.15 665.12,473.86 C638.23,450.81 622.2524,420.3929 611.1824,391.8929" fill="none" id="GCS-to-MQTT" style="stroke:#006400;stroke-width:1;"/><polygon fill="#006400" points="609.01,386.3,608.54,396.1376,610.8203,390.9608,615.9972,393.2411,609.01,386.3" style="stroke:#006400;stroke-width:1;"/><text fill="#000000" font-family="PingFang SC" font-size="13" lengthAdjust="spacing" textLength="96.096" x="666.12" y="432.64">TLS &#21152;&#23494; MQTT</text><text fill="#000000" font-family="PingFang SC" font-size="13" lengthAdjust="spacing" textLength="93.158" x="667.589" y="450.84">&#20250;&#35805;&#24314;&#31435; / &#35748;&#35777;</text><text fill="#000000" font-family="PingFang SC" font-size="13" lengthAdjust="spacing" textLength="78" x="675.168" y="469.04">&#25511;&#21046;&#25351;&#20196;&#19979;&#21457;</text></g><!--link MQTT to GCS--><g class="link" data-entity-1="MQTT" data-entity-2="GCS" data-source-line="41" data-uid="lnk13" id="link_MQTT_GCS"><path d="M525.85,386.25 C516.24,395.47 507.75,406.04 502.12,417.86 C491.41,440.33 486.31,454.64 502.12,473.86 C537.91,517.38 685.9061,535.0606 784.4961,542.3006" fill="none" id="MQTT-to-GCS" style="stroke:#006400;stroke-width:1;"/><polygon fill="#006400" points="790.48,542.74,781.7971,538.0916,785.4934,542.3738,781.2112,546.0701,790.48,542.74" style="stroke:#006400;stroke-width:1;"/><text fill="#000000" font-family="PingFang SC" font-size="13" lengthAdjust="spacing" textLength="93.158" x="513.039" y="441.64">&#25511;&#21046;&#21709;&#24212; / &#29366;&#24577;</text><text fill="#000000" font-family="PingFang SC" font-size="13" lengthAdjust="spacing" textLength="112.996" x="503.12" y="459.84">(&#24515;&#36339; / OSD / HSI)</text></g><!--link MQTT to UAV1--><g class="link" data-entity-1="MQTT" data-entity-2="UAV1" data-source-line="44" data-uid="lnk14" id="link_MQTT_UAV1"><path d="M524.1,339.32 C385.21,335.42 85.63,318.28 22.12,243.06 C6.06,224.04 6,206.03 22.12,187.06 C62.72,139.26 234.7134,126.4217 339.0834,122.9117" fill="none" id="MQTT-to-UAV1" style="stroke:#4169E1;stroke-width:1;"/><polygon fill="#4169E1" points="345.08,122.71,335.9506,119.0148,340.0828,122.8781,336.2195,127.0102,345.08,122.71" style="stroke:#4169E1;stroke-width:1;"/><text fill="#000000" font-family="PingFang SC" font-size="13" lengthAdjust="spacing" textLength="83.759" x="40.8195" y="201.84">DRC &#25511;&#21046;&#36890;&#36947;</text><text fill="#000000" font-family="PingFang SC" font-size="13" lengthAdjust="spacing" textLength="119.158" x="23.12" y="220.04">&#36965;&#25511;&#25351;&#20196; / &#27169;&#24335;&#20999;&#25442;</text><text fill="#000000" font-family="PingFang SC" font-size="13" lengthAdjust="spacing" textLength="52" x="56.699" y="238.24">&#24515;&#36339;&#20445;&#25345;</text></g><!--link UAV1 to MQTT--><g class="link" data-entity-1="UAV1" data-entity-2="MQTT" data-source-line="48" data-uid="lnk17" id="link_UAV1_MQTT"><path d="M345.04,132.37 C282.95,142.93 202.88,161.14 183.12,187.06 C168.03,206.85 167.67,223.54 183.12,243.06 C224.9,295.87 412.0027,322.3544 518.3627,333.5044" fill="none" id="UAV1-to-MQTT" style="stroke:#4169E1;stroke-width:1;"/><polygon fill="#4169E1" points="524.33,334.13,515.7961,329.2134,519.3573,333.6087,514.962,337.1698,524.33,334.13" style="stroke:#4169E1;stroke-width:1;"/><text fill="#000000" font-family="PingFang SC" font-size="13" lengthAdjust="spacing" textLength="120.523" x="184.12" y="219.84">OSD / &#39134;&#34892;&#29366;&#24577;&#19978;&#25253;</text></g><!--link MQTT to UAV2--><g class="link" data-entity-1="MQTT" data-entity-2="UAV2" data-source-line="45" data-uid="lnk15" id="link_MQTT_UAV2"><path d="M529.95,296.86 C491.65,265.81 455.79,223.33 484.12,187.06 C493.14,175.51 502.57,184.67 516.12,179.06 C531.56,172.66 542.3173,167.1507 556.6273,158.5507" fill="none" id="MQTT-to-UAV2" style="stroke:#4169E1;stroke-width:1;"/><polygon fill="#4169E1" points="561.77,155.46,551.9954,156.6675,557.4844,158.0356,556.1163,163.5245,561.77,155.46" style="stroke:#4169E1;stroke-width:1;"/><text fill="#000000" font-family="PingFang SC" font-size="13" lengthAdjust="spacing" textLength="83.759" x="485.12" y="219.84">DRC &#25511;&#21046;&#36890;&#36947;</text></g><!--link UAV2 to MQTT--><g class="link" data-entity-1="UAV2" data-entity-2="MQTT" data-source-line="49" data-uid="lnk18" id="link_UAV2_MQTT"><path d="M609.5,155.2 C606.55,193.23 602.2051,249.2081 598.9651,290.8781" fill="none" id="UAV2-to-MQTT" style="stroke:#4169E1;stroke-width:1;"/><polygon fill="#4169E1" points="598.5,296.86,603.1856,288.1972,598.8876,291.875,595.2097,287.577,598.5,296.86" style="stroke:#4169E1;stroke-width:1;"/><text fill="#000000" font-family="PingFang SC" font-size="13" lengthAdjust="spacing" textLength="120.523" x="607.62" y="219.84">OSD / &#39134;&#34892;&#29366;&#24577;&#19978;&#25253;</text></g><!--link MQTT to UAV3--><g class="link" data-entity-1="MQTT" data-entity-2="UAV3" data-source-line="46" data-uid="lnk16" id="link_MQTT_UAV3"><path d="M626.07,296.61 C641.08,279.06 660.73,260.74 683.12,251.06 C701.12,243.28 1022.4,257.09 1036.12,243.06 C1053.52,225.26 1051.14,206.9 1036.12,187.06 C1017.25,162.14 947.5452,145.0922 887.5052,134.2922" fill="none" id="MQTT-to-UAV3" style="stroke:#4169E1;stroke-width:1;"/><polygon fill="#4169E1" points="881.6,133.23,889.7497,138.7602,886.521,134.1152,891.166,130.8865,881.6,133.23" style="stroke:#4169E1;stroke-width:1;"/><text fill="#000000" font-family="PingFang SC" font-size="13" lengthAdjust="spacing" textLength="83.759" x="1049.29" y="219.84">DRC &#25511;&#21046;&#36890;&#36947;</text></g><!--link UAV3 to MQTT--><g class="link" data-entity-1="UAV3" data-entity-2="MQTT" data-source-line="50" data-uid="lnk19" id="link_UAV3_MQTT"><path d="M851.11,155.46 C860.45,164.57 868.94,175.22 874.12,187.06 C884.09,209.86 891.34,225.1 874.12,243.06 C859.41,258.39 702.53,242.45 683.12,251.06 C660.82,260.95 645.098,274.7472 630.068,292.2572" fill="none" id="UAV3-to-MQTT" style="stroke:#4169E1;stroke-width:1;"/><polygon fill="#4169E1" points="626.16,296.81,635.0571,292.5861,629.4166,293.016,628.9867,287.3755,626.16,296.81" style="stroke:#4169E1;stroke-width:1;"/><text fill="#000000" font-family="PingFang SC" font-size="13" lengthAdjust="spacing" textLength="120.523" x="885.49" y="219.84">OSD / &#39134;&#34892;&#29366;&#24577;&#19978;&#25253;</text></g><!--link UAV1 to MEDIA_CLOUD--><g class="link" data-entity-1="UAV1" data-entity-2="MEDIA_CLOUD" data-source-line="53" data-uid="lnk20" id="link_UAV1_MEDIA_CLOUD"><path d="M387.76,155.56 C365,182.2 343.34,218.67 367.12,243.06 C379.38,255.63 666.76,244.67 683.12,251.06 C707.9,260.74 726.4362,275.0586 744.1462,292.7586" fill="none" id="UAV1-to-MEDIA_CLOUD" style="stroke:#FF8C00;stroke-width:1;"/><polygon fill="#FF8C00" points="748.39,297,744.8519,287.8086,744.8535,293.4655,739.1966,293.4671,748.39,297" style="stroke:#FF8C00;stroke-width:1;"/><text fill="#000000" font-family="PingFang SC" font-size="13" lengthAdjust="spacing" textLength="97.305" x="368.12" y="210.84">&#21152;&#23494; RTMP &#25512;&#27969;</text><text fill="#000000" font-family="PingFang SC" font-size="13" lengthAdjust="spacing" textLength="78" x="377.7725" y="229.04">&#26426;&#36733;&#30456;&#26426;&#35270;&#39057;</text></g><!--link UAV2 to MEDIA_CLOUD--><g class="link" data-entity-1="UAV2" data-entity-2="MEDIA_CLOUD" data-source-line="54" data-uid="lnk21" id="link_UAV2_MEDIA_CLOUD"><path d="M662.54,155.45 C676.57,163.95 692.09,172.5 707.12,179.06 C718.98,184.24 725.8,178.08 735.12,187.06 C764.86,215.73 776.0834,256.35 780.9734,290.66" fill="none" id="UAV2-to-MEDIA_CLOUD" style="stroke:#FF8C00;stroke-width:1;"/><polygon fill="#FF8C00" points="781.82,296.6,784.5101,287.1256,781.1145,291.65,776.5901,288.2544,781.82,296.6" style="stroke:#FF8C00;stroke-width:1;"/><text fill="#000000" font-family="PingFang SC" font-size="13" lengthAdjust="spacing" textLength="97.305" x="769.69" y="219.84">&#21152;&#23494; RTMP &#25512;&#27969;</text></g><!--link UAV3 to MEDIA_CLOUD--><g class="link" data-entity-1="UAV3" data-entity-2="MEDIA_CLOUD" data-source-line="55" data-uid="lnk22" id="link_UAV3_MEDIA_CLOUD"><path d="M881.45,122.56 C1009.13,127.06 1240.35,148.13 1161.12,243.06 C1154.75,250.69 1126.81,248.88 1117.12,251.06 C1032.24,270.17 942.1582,294.8484 875.3482,313.9784" fill="none" id="UAV3-to-MEDIA_CLOUD" style="stroke:#FF8C00;stroke-width:1;"/><polygon fill="#FF8C00" points="869.58,315.63,879.3334,316.998,874.3868,314.2536,877.1312,309.3071,869.58,315.63" style="stroke:#FF8C00;stroke-width:1;"/><text fill="#000000" font-family="PingFang SC" font-size="13" lengthAdjust="spacing" textLength="97.305" x="1178.26" y="219.84">&#21152;&#23494; RTMP &#25512;&#27969;</text></g><!--link GCS to MEDIA_CLOUD--><g class="link" data-entity-1="GCS" data-entity-2="MEDIA_CLOUD" data-source-line="58" data-uid="lnk23" id="link_GCS_MEDIA_CLOUD"><path d="M804.51,503.6 C795.47,494.9 787.5,484.97 782.12,473.86 C769.03,446.86 769.2427,418.8563 773.4527,392.2363" fill="none" id="GCS-to-MEDIA_CLOUD" style="stroke:#FF8C00;stroke-width:1;"/><polygon fill="#FF8C00" points="774.39,386.31,769.0332,394.5747,773.6089,391.2486,776.935,395.8244,774.39,386.31" style="stroke:#FF8C00;stroke-width:1;"/><text fill="#000000" font-family="PingFang SC" font-size="13" lengthAdjust="spacing" textLength="138.593" x="783.12" y="441.64">&#36890;&#36807; RTMP/RTSP/HLS</text><text fill="#000000" font-family="PingFang SC" font-size="13" lengthAdjust="spacing" textLength="130" x="787.4165" y="459.84">&#21152;&#23494;&#25289;&#27969;&#22810;&#20010;&#35270;&#39057;&#36890;&#36947;</text></g><!--link MEDIA_CLOUD to GCS--><g class="link" data-entity-1="MEDIA_CLOUD" data-entity-2="GCS" data-source-line="59" data-uid="lnk24" id="link_MEDIA_CLOUD_GCS"><path d="M869.52,369.23 C891.8,380.57 913.2,396.31 926.12,417.86 C942.25,444.79 932.1541,472.7217 915.0541,498.6417" fill="none" id="MEDIA_CLOUD-to-GCS" style="stroke:#FF8C00;stroke-width:1;"/><polygon fill="#FF8C00" points="911.75,503.65,920.045,498.3403,914.5034,499.4764,913.3673,493.9348,911.75,503.65" style="stroke:#FF8C00;stroke-width:1;"/><text fill="#000000" font-family="PingFang SC" font-size="13" lengthAdjust="spacing" textLength="132.158" x="934.38" y="450.64">&#23454;&#26102;&#35270;&#39057;&#24103; / &#20851;&#38190;&#24103;&#27969;</text></g><!--link GCS to IVAS_SRVR--><g class="link" data-entity-1="GCS" data-entity-2="IVAS_SRVR" data-source-line="62" data-uid="lnk25" id="link_GCS_IVAS_SRVR"><path d="M959.62,539.17 C1049.21,528.91 1182.84,508.3 1220.12,473.86 C1247.12,448.91 1255.2127,412.1877 1257.8027,382.2577" fill="none" id="GCS-to-IVAS_SRVR" style="stroke:#B22222;stroke-width:1;"/><polygon fill="#B22222" points="1258.32,376.28,1253.559,384.9016,1257.8889,381.2614,1261.5292,385.5913,1258.32,376.28" style="stroke:#B22222;stroke-width:1;"/><text fill="#000000" font-family="PingFang SC" font-size="13" lengthAdjust="spacing" textLength="158.314" x="1251.46" y="432.64">HTTPS(TLS) / WebSocket</text><text fill="#000000" font-family="PingFang SC" font-size="13" lengthAdjust="spacing" textLength="119.158" x="1271.038" y="450.84">&#36523;&#20221;&#35748;&#35777; / &#20219;&#21153;&#25289;&#21462;</text><text fill="#000000" font-family="PingFang SC" font-size="13" lengthAdjust="spacing" textLength="119.158" x="1271.038" y="469.04">&#30446;&#26631;&#19978;&#25253; / &#29366;&#24577;&#21516;&#27493;</text></g><!--link IVAS_SRVR to GCS--><g class="link" data-entity-1="IVAS_SRVR" data-entity-2="GCS" data-source-line="63" data-uid="lnk26" id="link_IVAS_SRVR_GCS"><path d="M1195.16,376.4 C1174.36,388.48 1151.62,402.84 1132.12,417.86 C1103.98,439.53 1105.13,454.87 1075.12,473.86 C1039.8,496.21 1002.4025,511.295 965.2625,523.225" fill="none" id="IVAS_SRVR-to-GCS" style="stroke:#B22222;stroke-width:1;"/><polygon fill="#B22222" points="959.55,525.06,969.3421,526.1159,964.3104,523.5309,966.8955,518.4992,959.55,525.06" style="stroke:#B22222;stroke-width:1;"/><text fill="#000000" font-family="PingFang SC" font-size="13" lengthAdjust="spacing" textLength="52" x="1146.12" y="432.64">&#20219;&#21153;&#19979;&#21457;</text><text fill="#000000" font-family="PingFang SC" font-size="13" lengthAdjust="spacing" textLength="78" x="1133.12" y="450.84">&#20219;&#21153;&#29366;&#24577;&#22238;&#20256;</text><text fill="#000000" font-family="PingFang SC" font-size="13" lengthAdjust="spacing" textLength="78" x="1133.12" y="469.04">&#31574;&#30053;&#21442;&#25968;&#19979;&#21457;</text></g><!--link OP_CONSOLE to IVAS_SRVR--><g class="link" data-entity-1="OP_CONSOLE" data-entity-2="IVAS_SRVR" data-source-line="66" data-uid="lnk27" id="link_OP_CONSOLE_IVAS_SRVR"><path d="M1326.79,155.2 C1311.76,196.35 1288.5588,259.8743 1273.5188,301.0443" fill="none" id="OP_CONSOLE-to-IVAS_SRVR" style="stroke:#000000;stroke-width:1;"/><polygon fill="#000000" points="1271.46,306.68,1278.3054,299.599,1273.1757,301.9836,1270.7911,296.8539,1271.46,306.68" style="stroke:#000000;stroke-width:1;"/><text fill="#000000" font-family="PingFang SC" font-size="13" lengthAdjust="spacing" textLength="119.158" x="1314.24" y="210.84">&#24577;&#21183;&#23637;&#31034; / &#20219;&#21153;&#32534;&#25490;</text><text fill="#000000" font-family="PingFang SC" font-size="13" lengthAdjust="spacing" textLength="119.158" x="1314.24" y="229.04">&#21578;&#35686;&#22788;&#32622; / &#22238;&#25918;&#20998;&#26512;</text></g><!--SRC=[dLPTJnj757tVNp4Y3uqVACLkyu3KIc13G2BOyJhqeQxGrbuI2xCRhKtJg8eKDuan1cnSFg9WOpvg5rG7GqL3BN_4_wNQcLq_vI_qpewzNcoeH7b0mywzvywvzymPeg5eM4HJiwCymeLTylP0hLP9hjfwkQis3ydg9bd9VAedF88IHSEVwYiS5ra8IKy5HLX40NdngIo9KfIFFWSCHGn41UbnMBI4H9u8GVbPI7gCveLmnBepgYZoCwSSbXLqns7yz6xwdeG22v8OYQ3Xpx-mR0R5UM4f79sGfUYCi2YY0G_WJq1bn3i7ECuy1Xh0RzvhZGmQGcfb4nO3I8YWcN4V-fb3I9A34F7WeS-7r6g6vDPnyX2_E_5BTrkn8aaTGvQMl2GlOpQ_v9k6vYGFy5bSR-P9gcW06QaKwOM9fX_7MqSPjNAgDzxtW7fz3pn3Ys8m92n6Vxe2IL8dv4DChQJ8wWei6FQuQsfqpZdjVkHgbtZ1SQo6CIaeWPklhFXghGPhjRAAqvGmd1idc-JrlhPVfFoDNQry2CHiHWKACyTxPxs0RsARqyUvyzRUaLPwvvUeA79LoCE9IzgJR9aSBEjdSPme-IM6YzVJ-lahoc3bM3zSC_3lEtc6F2-7WwA21hJKEGOSKr_PkFQnO8G-6ftbBIE1FmU7WL5G_34K4ES2zEFNQDZMYHs-4cdlYxIRaVOhaOw-I8SPwQ0d3OJbfI0CiRcXrVwYFLnR9cj5hNG6YUH3MZzEGAiDCINLndfxzwAcrVOPZjipvtJFyExfSOxx30wCp2wYV-9Rg4zgSAsO0kYrelqQ_EwEIr0MxYkYA7q_-0tB645TgHXVeElrNVri3zUgMcaLpgEN2_fPp2-n6S6vr5g12O4p47fXQQaHnABnvZgkRfbQ1wQWA_tl2_ZYvbtmUvAVib4wTbi_0OEMEL6Wu_8w4HX7AxP9ANMAU-NdGdWil2JIudI0K9r6iXEmUB_4RXqxFMt-oI6kft5YcQmVWGYDGwdDFR8Mkn7NVWtkZS6Ewu8vutIzqUqni7wqVik3n5ctG0WaMUICqlyZoN7h99Y3mzRjkD5_60X8rEeyfguGDHqwYGujAWEt0kR8gbbCPWHPKX2p951Khget6bgsGXT61PFixQ1CkhTC0y9VzjwZ_o3C7BJdEjrK3cQkDvUDSaDU7-yPcfpcGMaM8B0-jV87gzIHamMY3vzTB5pEaxUNB0jNw3k2troqjigmRbFwgfSIDUFht60Yf8XZ2ho25Bths2DeqkVpy7V166m0_wtu0oy75iIeNzAh9RNMO8PWsZwGmUaTlyIicqd9lF5uOusS5hakU6zPHihwl7HilmsGpQlr0q0_tT6sYpZz2za-RxiFKBrdO_zQ64xHyLEZ9PTgROUv9zSrJbfzB2pq4sRl6VvpMojKk-zPVOUaVeMPPPBwwU-uy5fhb2bsDa-sFk94dEGtk7y1]--></g></svg>